<mxfile host="app.diagrams.net" modified="2020-09-18T09:26:39.271Z" agent="5.0 (Windows NT 6.1; Win64; x64) AppleWebKit/537.36 (KHTML, like Gecko) Chrome/85.0.4183.102 Safari/537.36 Edg/85.0.564.51" etag="ra6IKYYUQfdbftekRNXz" version="13.7.3" type="github">
  <diagram id="QxkGq5VfDhQa0VKapy4N" name="Page-1">
    <mxGraphModel dx="1422" dy="762" grid="1" gridSize="10" guides="1" tooltips="1" connect="1" arrows="1" fold="1" page="1" pageScale="1" pageWidth="827" pageHeight="1169" math="0" shadow="0">
      <root>
        <mxCell id="0" />
        <mxCell id="1" parent="0" />
        <mxCell id="pwgO-M7oZB2X5axSQx-U-1" value="1 + &quot;1&quot; " style="text;strokeColor=none;fillColor=none;align=center;verticalAlign=middle;whiteSpace=wrap;rounded=0;fontSize=20;fontColor=#1A1A1A;" vertex="1" parent="1">
          <mxGeometry x="167" y="220" width="180" height="20" as="geometry" />
        </mxCell>
        <mxCell id="pwgO-M7oZB2X5axSQx-U-2" value="1..toString() + &quot;1&quot;" style="text;strokeColor=none;fillColor=none;align=center;verticalAlign=middle;whiteSpace=wrap;rounded=0;fontSize=20;fontColor=#1A1A1A;" vertex="1" parent="1">
          <mxGeometry x="487" y="220" width="280" height="20" as="geometry" />
        </mxCell>
        <mxCell id="pwgO-M7oZB2X5axSQx-U-3" value="The Addition Operator ( + )" style="text;whiteSpace=wrap;fontSize=20;fontColor=#1A1A1A;" vertex="1" parent="1">
          <mxGeometry x="132" y="350" width="250" height="40" as="geometry" />
        </mxCell>
        <mxCell id="pwgO-M7oZB2X5axSQx-U-4" value=" EvaluateStringOrNumericBinaryExpression" style="text;whiteSpace=wrap;fontSize=20;fontColor=#1A1A1A;" vertex="1" parent="1">
          <mxGeometry x="54" y="440" width="410" height="40" as="geometry" />
        </mxCell>
        <mxCell id="pwgO-M7oZB2X5axSQx-U-6" value="" style="endArrow=classic;fontSize=20;exitX=0.5;exitY=1;exitDx=0;exitDy=0;entryX=0.5;entryY=0;entryDx=0;entryDy=0;fontColor=#1A1A1A;" edge="1" parent="1" source="pwgO-M7oZB2X5axSQx-U-1" target="pwgO-M7oZB2X5axSQx-U-3">
          <mxGeometry width="50" height="50" relative="1" as="geometry">
            <mxPoint x="397" y="460" as="sourcePoint" />
            <mxPoint x="447" y="410" as="targetPoint" />
          </mxGeometry>
        </mxCell>
        <mxCell id="pwgO-M7oZB2X5axSQx-U-7" value="" style="endArrow=classic;fontSize=20;exitX=0.5;exitY=1;exitDx=0;exitDy=0;fontColor=#1A1A1A;entryX=0.5;entryY=0;entryDx=0;entryDy=0;" edge="1" parent="1" source="pwgO-M7oZB2X5axSQx-U-3">
          <mxGeometry width="50" height="50" relative="1" as="geometry">
            <mxPoint x="221.5" y="470" as="sourcePoint" />
            <mxPoint x="257" y="440" as="targetPoint" />
          </mxGeometry>
        </mxCell>
        <mxCell id="pwgO-M7oZB2X5axSQx-U-8" value="ApplyStringOrNumericBinaryOperator" style="text;whiteSpace=wrap;fontSize=20;fontColor=#1A1A1A;" vertex="1" parent="1">
          <mxGeometry x="79.5" y="530" width="355" height="40" as="geometry" />
        </mxCell>
        <mxCell id="pwgO-M7oZB2X5axSQx-U-9" value=" ToString" style="text;whiteSpace=wrap;fontSize=20;fontColor=#1A1A1A;" vertex="1" parent="1">
          <mxGeometry x="211.25" y="640" width="91.5" height="40" as="geometry" />
        </mxCell>
        <mxCell id="pwgO-M7oZB2X5axSQx-U-10" value=" Number::toString" style="text;whiteSpace=wrap;fontSize=20;fontColor=#1A1A1A;" vertex="1" parent="1">
          <mxGeometry x="167" y="720" width="180" height="40" as="geometry" />
        </mxCell>
        <UserObject label="Number.prototype.toString" link="Number.prototype.toString" id="pwgO-M7oZB2X5axSQx-U-13">
          <mxCell style="text;whiteSpace=wrap;fontSize=20;fontColor=#1A1A1A;" vertex="1" parent="1">
            <mxGeometry x="497" y="280" width="260" height="40" as="geometry" />
          </mxCell>
        </UserObject>
        <mxCell id="pwgO-M7oZB2X5axSQx-U-14" value="Return argument.&#xa;原样返回&#xa;" style="text;whiteSpace=wrap;fontSize=20;fontColor=#1A1A1A;" vertex="1" parent="1">
          <mxGeometry x="547" y="705" width="160" height="70" as="geometry" />
        </mxCell>
        <mxCell id="pwgO-M7oZB2X5axSQx-U-15" value="&quot;1&quot; + &quot;1&quot; " style="text;strokeColor=none;fillColor=none;align=center;verticalAlign=middle;whiteSpace=wrap;rounded=0;fontSize=20;fontColor=#1A1A1A;" vertex="1" parent="1">
          <mxGeometry x="167" y="810" width="180" height="20" as="geometry" />
        </mxCell>
        <mxCell id="pwgO-M7oZB2X5axSQx-U-16" value="&quot;1&quot; + &quot;1&quot; " style="text;strokeColor=none;fillColor=none;align=center;verticalAlign=middle;whiteSpace=wrap;rounded=0;fontSize=20;fontColor=#1A1A1A;" vertex="1" parent="1">
          <mxGeometry x="537" y="810" width="180" height="20" as="geometry" />
        </mxCell>
        <mxCell id="pwgO-M7oZB2X5axSQx-U-18" value="&quot;11&quot; " style="text;strokeColor=none;fillColor=none;align=center;verticalAlign=middle;whiteSpace=wrap;rounded=0;fontSize=20;fontColor=#1A1A1A;" vertex="1" parent="1">
          <mxGeometry x="337" y="884" width="180" height="20" as="geometry" />
        </mxCell>
        <mxCell id="pwgO-M7oZB2X5axSQx-U-19" value="" style="endArrow=classic;html=1;fontSize=20;fontColor=#1A1A1A;exitX=0.5;exitY=1;exitDx=0;exitDy=0;entryX=0.5;entryY=0;entryDx=0;entryDy=0;" edge="1" parent="1" source="pwgO-M7oZB2X5axSQx-U-2" target="pwgO-M7oZB2X5axSQx-U-13">
          <mxGeometry width="50" height="50" relative="1" as="geometry">
            <mxPoint x="397" y="480" as="sourcePoint" />
            <mxPoint x="447" y="430" as="targetPoint" />
          </mxGeometry>
        </mxCell>
        <mxCell id="pwgO-M7oZB2X5axSQx-U-20" value="" style="endArrow=classic;html=1;fontSize=20;fontColor=#1A1A1A;exitX=0.5;exitY=1;exitDx=0;exitDy=0;entryX=0.5;entryY=0;entryDx=0;entryDy=0;" edge="1" parent="1" source="pwgO-M7oZB2X5axSQx-U-13" target="pwgO-M7oZB2X5axSQx-U-3">
          <mxGeometry width="50" height="50" relative="1" as="geometry">
            <mxPoint x="397" y="480" as="sourcePoint" />
            <mxPoint x="447" y="430" as="targetPoint" />
          </mxGeometry>
        </mxCell>
        <mxCell id="pwgO-M7oZB2X5axSQx-U-21" value="" style="endArrow=classic;html=1;fontSize=20;fontColor=#1A1A1A;exitX=0.5;exitY=1;exitDx=0;exitDy=0;entryX=0.5;entryY=0;entryDx=0;entryDy=0;" edge="1" parent="1" target="pwgO-M7oZB2X5axSQx-U-8">
          <mxGeometry width="50" height="50" relative="1" as="geometry">
            <mxPoint x="257" y="480" as="sourcePoint" />
            <mxPoint x="447" y="550" as="targetPoint" />
          </mxGeometry>
        </mxCell>
        <mxCell id="pwgO-M7oZB2X5axSQx-U-22" value="" style="endArrow=classic;html=1;fontSize=20;fontColor=#1A1A1A;exitX=0.5;exitY=1;exitDx=0;exitDy=0;entryX=0.5;entryY=0;entryDx=0;entryDy=0;" edge="1" parent="1" source="pwgO-M7oZB2X5axSQx-U-8" target="pwgO-M7oZB2X5axSQx-U-9">
          <mxGeometry width="50" height="50" relative="1" as="geometry">
            <mxPoint x="377" y="600" as="sourcePoint" />
            <mxPoint x="377" y="650" as="targetPoint" />
          </mxGeometry>
        </mxCell>
        <mxCell id="pwgO-M7oZB2X5axSQx-U-23" value="" style="endArrow=classic;html=1;fontSize=20;fontColor=#1A1A1A;exitX=0.5;exitY=1;exitDx=0;exitDy=0;entryX=0.5;entryY=0;entryDx=0;entryDy=0;" edge="1" parent="1" source="pwgO-M7oZB2X5axSQx-U-9" target="pwgO-M7oZB2X5axSQx-U-10">
          <mxGeometry width="50" height="50" relative="1" as="geometry">
            <mxPoint x="397" y="600" as="sourcePoint" />
            <mxPoint x="447" y="550" as="targetPoint" />
          </mxGeometry>
        </mxCell>
        <mxCell id="pwgO-M7oZB2X5axSQx-U-24" value="" style="endArrow=classic;html=1;fontSize=20;fontColor=#1A1A1A;exitX=0.5;exitY=1;exitDx=0;exitDy=0;entryX=0.5;entryY=0;entryDx=0;entryDy=0;" edge="1" parent="1" source="pwgO-M7oZB2X5axSQx-U-9" target="pwgO-M7oZB2X5axSQx-U-14">
          <mxGeometry width="50" height="50" relative="1" as="geometry">
            <mxPoint x="397" y="600" as="sourcePoint" />
            <mxPoint x="447" y="550" as="targetPoint" />
          </mxGeometry>
        </mxCell>
        <mxCell id="pwgO-M7oZB2X5axSQx-U-25" value="" style="endArrow=classic;html=1;fontSize=20;fontColor=#1A1A1A;exitX=0.5;exitY=1;exitDx=0;exitDy=0;entryX=0.5;entryY=0;entryDx=0;entryDy=0;" edge="1" parent="1" source="pwgO-M7oZB2X5axSQx-U-10" target="pwgO-M7oZB2X5axSQx-U-15">
          <mxGeometry width="50" height="50" relative="1" as="geometry">
            <mxPoint x="397" y="720" as="sourcePoint" />
            <mxPoint x="447" y="670" as="targetPoint" />
          </mxGeometry>
        </mxCell>
        <mxCell id="pwgO-M7oZB2X5axSQx-U-26" value="" style="endArrow=classic;html=1;fontSize=20;fontColor=#1A1A1A;exitX=0.5;exitY=1;exitDx=0;exitDy=0;entryX=0.5;entryY=0;entryDx=0;entryDy=0;" edge="1" parent="1" source="pwgO-M7oZB2X5axSQx-U-14" target="pwgO-M7oZB2X5axSQx-U-16">
          <mxGeometry width="50" height="50" relative="1" as="geometry">
            <mxPoint x="397" y="720" as="sourcePoint" />
            <mxPoint x="447" y="670" as="targetPoint" />
          </mxGeometry>
        </mxCell>
        <mxCell id="pwgO-M7oZB2X5axSQx-U-28" value="" style="endArrow=classic;html=1;fontSize=20;fontColor=#1A1A1A;exitX=0.5;exitY=1;exitDx=0;exitDy=0;entryX=0.5;entryY=0;entryDx=0;entryDy=0;" edge="1" parent="1" source="pwgO-M7oZB2X5axSQx-U-15" target="pwgO-M7oZB2X5axSQx-U-18">
          <mxGeometry width="50" height="50" relative="1" as="geometry">
            <mxPoint x="397" y="720" as="sourcePoint" />
            <mxPoint x="447" y="670" as="targetPoint" />
          </mxGeometry>
        </mxCell>
        <mxCell id="pwgO-M7oZB2X5axSQx-U-29" value="" style="endArrow=classic;html=1;fontSize=20;fontColor=#1A1A1A;exitX=0.5;exitY=1;exitDx=0;exitDy=0;entryX=0.5;entryY=0;entryDx=0;entryDy=0;" edge="1" parent="1" source="pwgO-M7oZB2X5axSQx-U-16" target="pwgO-M7oZB2X5axSQx-U-18">
          <mxGeometry width="50" height="50" relative="1" as="geometry">
            <mxPoint x="397" y="720" as="sourcePoint" />
            <mxPoint x="447" y="670" as="targetPoint" />
          </mxGeometry>
        </mxCell>
      </root>
    </mxGraphModel>
  </diagram>
</mxfile>
